<svg xmlns="http://www.w3.org/2000/svg" viewBox="0 0 32 32" fill="none">
  <rect width="32" height="32" rx="8" fill="#e8a045"/>
  <path d="M7 8C7 7.44772 7.44772 7 8 7H18C18.5523 7 19 7.44772 19 8V22C19 22.5523 18.5523 23 18 23H8C7.44772 23 7 22.5523 7 22V8Z" fill="#000" fill-opacity="0.85"/>
  <path d="M11 7V23" stroke="#e8a045" stroke-width="1.2" stroke-opacity="0.4"/>
  <path d="M19 10L25 12V26L19 24" fill="#000" fill-opacity="0.6"/>
  <path d="M19 10L25 12V26L19 24V10Z" stroke="#000" stroke-width="0.5" stroke-opacity="0.3"/>
  <path d="M9.5 11H16" stroke="white" stroke-width="1.2" stroke-linecap="round" stroke-opacity="0.7"/>
  <path d="M9.5 14H16" stroke="white" stroke-width="1.2" stroke-linecap="round" stroke-opacity="0.7"/>
  <path d="M9.5 17H13.5" stroke="white" stroke-width="1.2" stroke-linecap="round" stroke-opacity="0.7"/>
</svg>
